<?xml version="1.0" encoding="utf-8"?>
<!-- Generator: Adobe Illustrator 18.1.0, SVG Export Plug-In . SVG Version: 6.00 Build 0)  -->
<svg version="1.0" id="Capa_1" xmlns="http://www.w3.org/2000/svg" xmlns:xlink="http://www.w3.org/1999/xlink" x="0px" y="0px"
	 viewBox="0 0 1280 800" enable-background="new 0 0 1280 800" xml:space="preserve">
<g>
	<path d="M1033.4,380.1c-7.1-9.6-176.6-234.2-393.4-234.2c-216.8,0-386.3,224.7-393.4,234.2c-8.8,11.8-8.8,28.1,0,39.9
		c7.1,9.6,176.6,234.2,393.4,234.2c216.8,0,386.3-224.6,393.4-234.2C1042.2,408.1,1042.2,391.9,1033.4,380.1z M640,533.9
		c-73.8,0-133.9-60.1-133.9-133.9c0-73.8,60.1-133.9,133.9-133.9c73.8,0,133.9,60.1,133.9,133.9C773.9,473.8,713.8,533.9,640,533.9z
		"/>
	<circle cx="640" cy="400" r="56.9"/>
</g>
</svg>
