<?xml version="1.0" encoding="utf-8"?>
<!-- Generator: Adobe Illustrator 18.1.0, SVG Export Plug-In . SVG Version: 6.00 Build 0)  -->
<svg version="1.0" id="Capa_1" xmlns="http://www.w3.org/2000/svg" xmlns:xlink="http://www.w3.org/1999/xlink" x="0px" y="0px"
	 viewBox="0 0 1280 800" enable-background="new 0 0 1280 800" xml:space="preserve">
<g>
	<g>
		<path fill="#FFFFFF" d="M640,641.7c-47.7,0-97.1-11.5-146.7-34.1c-40.3-18.4-80.9-44.2-120.7-76.6c-69.9-57-114.1-116-115.9-118.5
			c-5.6-7.5-5.6-17.5,0-25c1.8-2.5,46-61.5,115.9-118.5c39.8-32.4,80.4-58.2,120.7-76.6c49.6-22.6,99-34.1,146.7-34.1
			s97.1,11.5,146.7,34.1c40.3,18.4,80.9,44.2,120.7,76.6c69.9,57,114.1,116,115.9,118.5c5.6,7.5,5.6,17.5,0,25
			c-1.8,2.5-46,61.5-115.9,118.5c-39.8,32.4-80.4,58.2-120.7,76.6C737.1,630.2,687.7,641.7,640,641.7z M640,253.6
			c-80.7,0-146.4,65.7-146.4,146.4S559.3,546.4,640,546.4S786.4,480.7,786.4,400S720.7,253.6,640,253.6z"/>
		<path d="M640,170.8c45.9,0,93.6,11.1,141.5,33c39.3,17.9,79,43.1,118,74.9c68.7,56,112,113.8,113.8,116.2c2.2,3,2.2,7.1,0,10.1
			c-1.8,2.4-45.1,60.2-113.8,116.2c-39,31.8-78.7,57-118,74.9c-48,21.9-95.6,33-141.5,33s-93.6-11.1-141.5-33
			c-39.3-17.9-79-43.1-118-74.9c-68.7-56-112-113.8-113.8-116.2c-2.2-3-2.2-7,0-10.1c1.8-2.4,45.1-60.2,113.8-116.2
			c39-31.8,78.7-57,118-74.9C546.4,181.9,594.1,170.8,640,170.8 M640,558.9c87.6,0,158.9-71.3,158.9-158.9S727.6,241.1,640,241.1
			S481.1,312.4,481.1,400S552.4,558.9,640,558.9 M640,145.8c-216.8,0-386.3,224.7-393.4,234.2c-8.8,11.8-8.8,28.1,0,39.9
			c7.1,9.6,176.6,234.2,393.4,234.2s386.3-224.6,393.4-234.2c8.8-11.8,8.8-28.1,0-39.9C1026.3,370.5,856.8,145.8,640,145.8
			L640,145.8z M640,533.9c-73.8,0-133.9-60.1-133.9-133.9S566.2,266.1,640,266.1S773.9,326.2,773.9,400S713.8,533.9,640,533.9
			L640,533.9z"/>
	</g>
	<g>
		<path d="M640,367.1c18.1,0,32.9,14.7,32.9,32.9c0,18.1-14.7,32.9-32.9,32.9s-32.9-14.7-32.9-32.9
			C607.1,381.9,621.9,367.1,640,367.1 M640,343.1c-31.4,0-56.9,25.5-56.9,56.9s25.5,56.9,56.9,56.9s56.9-25.5,56.9-56.9
			S671.4,343.1,640,343.1L640,343.1z"/>
	</g>
</g>
</svg>
